<svg xmlns="http://www.w3.org/2000/svg" xmlns:xlink="http://www.w3.org/1999/xlink" width="500" zoomAndPan="magnify" viewBox="0 0 375 374.999991" height="500" preserveAspectRatio="xMidYMid meet" version="1.0"><defs><clipPath id="2100ed9b4c"><path d="M 55.828125 306 L 278 306 L 278 362.113281 L 55.828125 362.113281 Z M 55.828125 306 " clip-rule="nonzero"/></clipPath><clipPath id="ff287b0779"><path d="M 55.828125 12.613281 L 337.410156 12.613281 L 337.410156 362.113281 L 55.828125 362.113281 Z M 55.828125 12.613281 " clip-rule="nonzero"/></clipPath></defs><g clip-path="url(#2100ed9b4c)"><path fill="#004aad" d="M 277.957031 307.515625 C 261.964844 307.488281 253.226562 313.050781 245.214844 318.148438 C 235.777344 324.152344 227.316406 329.535156 209.792969 325.105469 C 209.429688 325.011719 208.363281 324.667969 206.765625 324.152344 C 197.796875 321.257812 171.394531 312.730469 156.398438 312.542969 C 149.035156 312.453125 146.332031 314.011719 146.308594 316.355469 C 146.242188 321.511719 156.5 330.527344 162.566406 335.855469 L 162.574219 335.855469 C 164.160156 337.253906 165.46875 338.40625 166.296875 339.234375 C 172.070312 345.027344 174.019531 350.5 173.332031 354.492188 C 172.960938 356.660156 171.835938 358.402344 170.125 359.558594 C 168.464844 360.679688 166.273438 361.226562 163.714844 361.050781 C 157.375 360.605469 148.5625 355.617188 140.113281 343.554688 C 137.398438 339.679688 134.738281 335.902344 131.921875 333.359375 C 129.277344 330.960938 126.460938 329.648438 123.265625 330.433594 C 118.222656 331.664062 117.5 336.382812 116.710938 341.578125 C 115.835938 347.328125 114.882812 353.597656 108.566406 357.34375 C 102.832031 360.746094 98.03125 359.878906 93.078125 358.992188 C 89.363281 358.324219 85.554688 357.636719 81.277344 358.949219 C 76.964844 360.269531 72.480469 361.472656 67.921875 362.097656 C 63.925781 362.644531 59.875 362.738281 55.828125 362.078125 L 57.144531 360.101562 C 60.640625 360.558594 64.15625 360.441406 67.632812 359.96875 C 72.0625 359.359375 76.4375 358.183594 80.652344 356.890625 C 85.421875 355.433594 89.488281 356.164062 93.457031 356.875 C 98.003906 357.691406 102.417969 358.488281 107.472656 355.488281 C 112.902344 352.269531 113.777344 346.519531 114.578125 341.261719 C 115.480469 335.3125 116.304688 329.914062 122.761719 328.339844 C 126.78125 327.359375 130.203125 328.902344 133.367188 331.761719 C 136.359375 334.46875 139.089844 338.351562 141.875 342.324219 C 149.894531 353.777344 158.0625 358.5 163.855469 358.898438 C 165.917969 359.042969 167.652344 358.625 168.921875 357.769531 C 170.132812 356.949219 170.941406 355.695312 171.210938 354.128906 C 171.789062 350.761719 169.996094 345.992188 164.773438 340.75 C 164.046875 340.027344 162.742188 338.875 161.144531 337.476562 L 161.148438 337.472656 C 154.804688 331.902344 144.078125 322.472656 144.15625 316.332031 C 144.203125 312.703125 147.488281 310.289062 156.425781 310.394531 C 171.753906 310.585938 198.378906 319.183594 207.421875 322.105469 C 208.957031 322.597656 209.972656 322.929688 210.316406 323.015625 C 226.949219 327.222656 235.042969 322.074219 244.0625 316.335938 C 249.148438 313.097656 254.519531 309.679688 261.773438 307.535156 C 267.152344 305.949219 274.265625 305.492188 277.957031 307.515625 " fill-opacity="1" fill-rule="nonzero"/></g><g clip-path="url(#ff287b0779)"><path fill="#004aad" d="M 79.625 326.273438 C 70.230469 316.160156 75.730469 294.039062 79.105469 281.246094 C 83.765625 264.875 89.316406 250.1875 95.230469 239.15625 C 104.730469 233.429688 143.449219 218.246094 171.457031 169.796875 L 138.238281 184.6875 C 179.179688 157.699219 206.789062 106.804688 257.882812 79.285156 C 257.882812 79.285156 223.257812 80.914062 204.871094 93.773438 C 204.871094 93.773438 226.371094 75.507812 280.652344 67.535156 L 260.371094 57.492188 L 288.027344 61.089844 C 288.027344 61.089844 301.476562 28.617188 337.414062 16.703125 C 337.414062 16.703125 209.71875 -13.070312 166.855469 85.035156 C 166.855469 85.035156 174.550781 60.734375 186.339844 39.789062 C 186.339844 39.789062 126.300781 52.613281 97.484375 134.644531 C 97.484375 134.644531 104.394531 100.976562 111.71875 85.972656 C 111.71875 85.972656 74.824219 118.964844 76.371094 184.335938 C 76.371094 184.335938 67.839844 162.308594 70.113281 143.96875 C 70.113281 143.96875 40.375 184.445312 77.242188 230.5625 C 82.066406 219.800781 129.035156 110.40625 201.441406 72.96875 C 115 136.90625 67.085938 257.054688 55.828125 362.082031 L 79.625 326.273438 " fill-opacity="1" fill-rule="evenodd"/></g></svg>